<svg width="34" height="34" viewBox="0 0 34 34" fill="none" xmlns="http://www.w3.org/2000/svg">
<path d="M25.25 16.25H17.75V8.75C17.75 8.55109 17.671 8.36032 17.5303 8.21967C17.3897 8.07902 17.1989 8 17 8C16.8011 8 16.6103 8.07902 16.4697 8.21967C16.329 8.36032 16.25 8.55109 16.25 8.75V16.25H8.75C8.55109 16.25 8.36032 16.329 8.21967 16.4697C8.07902 16.6103 8 16.8011 8 17C8 17.1989 8.07902 17.3897 8.21967 17.5303C8.36032 17.671 8.55109 17.75 8.75 17.75H16.25V25.25C16.25 25.4489 16.329 25.6397 16.4697 25.7803C16.6103 25.921 16.8011 26 17 26C17.1989 26 17.3897 25.921 17.5303 25.7803C17.671 25.6397 17.75 25.4489 17.75 25.25V17.75H25.25C25.4489 17.75 25.6397 17.671 25.7803 17.5303C25.921 17.3897 26 17.1989 26 17C26 16.8011 25.921 16.6103 25.7803 16.4697C25.6397 16.329 25.4489 16.25 25.25 16.25Z" fill="white"/>
</svg>
